<svg width="31" height="31" viewBox="0 0 31 31" fill="none" xmlns="http://www.w3.org/2000/svg">
<mask id="path-1-inside-1_735_893" fill="white">
<path fill-rule="evenodd" clip-rule="evenodd" d="M0 8.5H7.5H15V16H7.5V23.5H15V31H7.5H0V23.5V16V8.5Z"/>
</mask>
<path d="M0 8.5V7.5H-1V8.5H0ZM15 8.5H16V7.5H15V8.5ZM15 16V17H16V16H15ZM7.5 16V15H6.5V16H7.5ZM7.5 23.5H6.5V24.5H7.5V23.5ZM15 23.5H16V22.5H15V23.5ZM15 31V32H16V31H15ZM0 31H-1V32H0V31ZM7.5 7.5H0V9.5H7.5V7.5ZM15 7.5H7.5V9.5H15V7.5ZM16 16V8.5H14V16H16ZM7.5 17H15V15H7.5V17ZM8.5 23.5V16H6.5V23.5H8.5ZM7.5 24.5H15V22.5H7.5V24.5ZM14 23.5V31H16V23.5H14ZM15 30H7.5V32H15V30ZM0 32H7.5V30H0V32ZM-1 23.5V31H1V23.5H-1ZM-1 16V23.5H1V16H-1ZM-1 8.5V16H1V8.5H-1Z" fill="#787CDD" mask="url(#path-1-inside-1_735_893)"/>
<mask id="path-3-outside-2_735_893" maskUnits="userSpaceOnUse" x="14" y="0" width="17" height="25" fill="black">
<rect fill="white" x="14" width="17" height="25"/>
<path fill-rule="evenodd" clip-rule="evenodd" d="M15 1H22.5H30V8.5V16V23.5H28H22.5H15V16H22.5V8.5H15V1Z"/>
</mask>
<path d="M15 1V0H14V1H15ZM30 1H31V0H30V1ZM30 23.5V24.5H31V23.5H30ZM15 23.5H14V24.5H15V23.5ZM15 16V15H14V16H15ZM22.5 16V17H23.5V16H22.5ZM22.5 8.5H23.5V7.5H22.5V8.5ZM15 8.5H14V9.5H15V8.5ZM22.5 0H15V2H22.5V0ZM30 0H22.5V2H30V0ZM31 8.5V1H29V8.5H31ZM31 16V8.5H29V16H31ZM31 23.5V16H29V23.5H31ZM28 24.5H30V22.5H28V24.5ZM28 22.5H22.5V24.5H28V22.5ZM22.5 22.5H15V24.5H22.5V22.5ZM16 23.5V16H14V23.5H16ZM15 17H22.5V15H15V17ZM21.5 8.5V16H23.5V8.5H21.5ZM15 9.5H22.5V7.5H15V9.5ZM14 1V8.5H16V1H14Z" fill="#787CDD" mask="url(#path-3-outside-2_735_893)"/>
</svg>
